#N canvas 834 147 640 374 24;
#X obj 156 12 loadbang;
#X obj 82 121 random 1000;
#X obj 93 173 / 1000;
#X obj 96 241 send;
#X obj 286 115 i \$1;
#X obj 159 57 t b b;
#X msg 301 155 symbol slider\$1_rcv;
#X connect 0 0 5 0;
#X connect 1 0 2 0;
#X connect 2 0 3 0;
#X connect 4 0 6 0;
#X connect 5 0 1 0;
#X connect 5 1 4 0;
#X connect 6 0 3 1;
