#N canvas 0 23 899 457 24;
#X obj 227 118 osc~ 200;
#X obj 126 125 line~;
#X msg 119 89 \$1 50;
#X obj 116 45 r name;
#X obj 186 198 *~;
#X obj 186 234 dac~;
#X connect 0 0 4 0;
#X connect 1 0 4 1;
#X connect 2 0 1 0;
#X connect 3 0 2 0;
#X connect 4 0 5 0;
#X connect 4 0 5 1;
